<svg xmlns="http://www.w3.org/2000/svg" width="149" height="40" fill="none" viewBox="0 0 149 40"><g clip-path="url(#a)"><path fill="#002F87" d="M4.45 3.48c0-1.28-.65-1.99-1.83-1.99H.17v1.05h2.2c.55 0 .8.3.8.94v3.36H.05V7.9H5.2V6.84h-.76V3.48Zm3-1.98H5.54v1.07h.89v2.65l1.28-.17V1.72a.25.25 0 0 0-.26-.23Zm5.71 1.98c0-1.28-.65-1.99-1.83-1.99H8.9v1.05h2.2c.55 0 .8.3.8.94v3.36H8.76V7.9h5.15V6.84h-.76l.01-3.36Zm7.48-.94h.53V1.5h-1.5l-1.13 2.96-2.38-3.25-.92.8 1 1.31-1.46 4.57h1.3l1.08-3.54.95 1.42 2.33 2.37.89-.88-1.9-1.87 1.2-2.84Zm3.56 1.64h-2.4v1.05h2.4V4.18Zm5.22-2.33a.36.36 0 0 0-.36-.35h-3.53V0h-1.27v2.55h3.77L25.55 7.9h1.36l2.52-5.33v-.71Zm4.02-.35h-3.26v5.34h-.94V7.9h1.94a.28.28 0 0 0 .28-.27V2.54h1.73c.55 0 .8.3.8.94V7.9h1.29V3.48c0-1.28-.65-1.99-1.84-1.99Zm7.85 0h-1.9v1.07h.89v2.65l1.28-.17V1.72a.25.25 0 0 0-.26-.23m6.94 1.05h.54V1.5h-1.5l-1.13 2.96-2.39-3.25-.91.8 1 1.31-1.46 4.58h1.3l1.08-3.55.94 1.42 2.34 2.36.88-.88-1.9-1.85 1.21-2.85Zm3.27-1.04h-1.82v1.04h.8V7.9h1.28V1.72a.24.24 0 0 0-.26-.23Zm6.38 0h-4.43l-.52 3.45a.49.49 0 0 0 .26.51c.05.03.12.05.18.05h1.83v-1h-.99l.28-1.96h2.38v3.13c0 .81-.36 1.16-1.2 1.16h-2.72V7.9h3.18a1.94 1.94 0 0 0 2-2.02V1.73a.25.25 0 0 0-.16-.22.25.25 0 0 0-.1-.02Zm5.21 0h-3.96v1.04h2.98V7.9h1.28V1.76a.28.28 0 0 0-.3-.27Zm4.93 0h-3.2v1.04h2.94c.55 0 .8.3.8.94V7.9h1.28V3.48c0-1.28-.65-1.99-1.82-1.99Z"/><path fill="#002F87" d="M64.83 7.9h1.28V4.19l-1.28.16V7.9Zm7.67-5.36h.8l.61 5.36h1.33l-.73-5.36h1V1.5H72.5v1.05Zm7.84-1.04h-4.11v1.04h3.1v3.14c0 .81-.35 1.16-1.18 1.16h-1.92V7.9h2.36a1.95 1.95 0 0 0 2.02-2.02V1.73a.25.25 0 0 0-.27-.24Zm5.23 0H81.6v1.04h2.99V7.9h1.28V1.76a.27.27 0 0 0-.29-.27m4.52.01h-3.22v1.04h.89l-.67 5.35h1.3l.6-5.35h1.13a.88.88 0 0 1 .68.24 1.42 1.42 0 0 1 .41 1.01v3.05H89.7v1.05h2.5l.29-.82V3.8a2.24 2.24 0 0 0-2.38-2.3m6.84 0h-3.2v1.04h2.94c.56 0 .81.3.81.94V7.9h1.27V3.48c0-1.28-.64-1.99-1.82-1.99Z"/><path fill="#002F87" d="M93.76 7.9h1.28V4.19l-1.28.16V7.9ZM69.71 22.34v-8.3h-.96V12.6h2.53a.24.24 0 0 1 .23.14c.02.03.02.06.03.1v8.45c.98.38 2 .6 3.05.65v-9.33h1.82v9.37c2.01-.23 3.23-1.5 3.23-2.74V12.6h1.84v6.6c0 2.55-2.6 4.3-5.92 4.3-2-.04-3.98-.42-5.84-1.15Zm-7.76-3.14v-3.36c0-1.17-.62-1.8-1.9-1.8h-3.18v5.17a2.72 2.72 0 0 0 2.66 2.84c2.03 0 2.43-1.72 2.43-2.84Zm-6.9-.02V12.6h5.73a2.95 2.95 0 0 1 3.02 3.29v3.3a3.98 3.98 0 0 1-4.27 4.3 4.16 4.16 0 0 1-4.48-4.3Zm-4.62 4.14v-9.28h-1.36V12.6h2.97a.22.22 0 0 1 .26.21v10.51h-1.87Zm-5.23 0v-9.28h-5.17V12.6h6.7a.3.3 0 0 1 .31.27v10.45H45.2Zm-7.47.31-3.92-3.97-1.84-2.76-1.95 6.4h-1.86l2.47-7.78-1.68-2.22 1.3-1.12 4.23 5.74 2.03-5.33h2.29v1.44h-.85l-2.2 5.16 3.23 3.17-1.25 1.27ZM24.62 19.2v-3.36c0-1.17-.63-1.8-1.9-1.8h-3.19v5.17a2.72 2.72 0 0 0 2.66 2.84c2.03 0 2.43-1.72 2.43-2.84v-.01Zm-6.9-.02v-6.59h5.73a2.95 2.95 0 0 1 3.02 3.29v3.3a3.98 3.98 0 0 1-4.27 4.3 4.15 4.15 0 0 1-4.48-4.3Zm-11.4-2.36h1.85v9.84H6.33v-9.84Zm3.7 6.5v-.8l3.82-8.48H6.02V12.6h9.36a.33.33 0 0 1 .33.32v1.3l-4.12 9.1H10Zm-8.38-4.67v-4.57H.09v-1.49h3.14a.26.26 0 0 1 .25.21v5.6l-1.84.25Zm85.5-2.59-.6-.23.49-2.73v-1.9h1.9v1.75l-1.8 3.11Zm-3.02 0-.56-.23.5-2.73v-1.9h1.88v1.75l-1.82 3.11Zm6.32 8.38-.5-1.59 2.95-.91-2.49-9.33h1.86l2.25 8.9c1.23-.4 2.43-.9 2.43-2.57v-4.9h-1.18V12.6h2.74a.28.28 0 0 1 .28.25v6.04a3.9 3.9 0 0 1-2.79 3.64l-5.55 1.91Z"/><path fill="#0093C9" d="M50.32 31.78c0-2.25-1.11-3.5-3.13-3.5h-4.2v1.78h3.76c.97 0 1.44.56 1.44 1.72v6.06h-5.4v1.77h8.85v-1.77h-1.32v-6.06Zm5.04-3.49h-3.11v1.77h1.38v9.55h2.12V28.65a.36.36 0 0 0-.24-.34.36.36 0 0 0-.15-.02Zm10.41 0H59.6v-2.67h-2.1v4.44h6.56l-4.29 9.5v.06h2.26l4.3-9.5v-1.24a.55.55 0 0 0-.57-.6m5.02.01H67.5v1.81h1.55v4.73l2.1-.3h.03v-5.88a.4.4 0 0 0-.4-.36Zm9.19 0H72.9v1.77h5.38v5.64c0 1.48-.65 2.15-2.12 2.15H72.9v1.78h4.06a3.38 3.38 0 0 0 3.44-3.55v-7.41a.4.4 0 0 0-.42-.38Zm5.63 0h-3.28v1.81h1.55v4.73l2.1-.3H86v-5.88a.4.4 0 0 0-.4-.36m9.9 6.91 2.13-5.14h.9v-1.77h-2.52l-1.97 5.32-4.13-5.8-.03-.03-1.48 1.34-.03.02 1.7 2.33-2.48 8.08-.02.04h2.16l1.89-6.4 1.69 2.6 3.98 4.18.03.03 1.43-1.48.02-.02-3.26-3.3ZM149 17.98h-10.8l8.83-8.83L144 6.13 133.05 17.1v-.02l-3.02 3.02v.02l3.01 3.01h.01l10.97 10.96 3.01-3.02-8.83-8.83H149v-4.26Z"/><path fill="#50C8E7" d="m126.69 20.1-3.02-3.02v.02L112.7 6.13l-3.02 3.02 8.83 8.83h-10.8v4.26h10.8l-8.82 8.83 3.01 3.02 10.97-10.96 3.02-3.02h-.01Z"/><path fill="#00ACD8" d="m142.5 35.02-10.96-10.97-3-3.02h-.02l-3.02 3.02-10.95 10.97 3.01 3.01 8.83-8.83V40h4.27V29.2l8.83 8.83 3-3.01Z"/><path fill="#002F87" d="m128.46 19.04 13.9-14.1s-8.53-8.83-13.9.84c-5.06-9.68-13.91-.84-13.91-.84l13.9 14.1"/></g><defs><clipPath id="a"><path fill="#fff" d="M.05 0H149v40H.05z"/></clipPath></defs></svg>