<svg xmlns="http://www.w3.org/2000/svg" version="1.1" xmlns:xlink="http://www.w3.org/1999/xlink" xmlns:svgjs="http://svgjs.dev/svgjs" width="32" height="32"><svg xmlns="http://www.w3.org/2000/svg" width="32" height="32" fill="none" viewBox="0 0 32 32"><path fill="#0093C9" d="M32 13.95h-8.37l6.84-6.84-2.33-2.34-8.5 8.49-2.34 2.33v.01l2.33 2.34v-.01l8.5 8.49 2.34-2.34-6.84-6.83H32v-3.3Z"></path><path fill="#50C8E7" d="m14.7 15.6-2.33-2.34h-.01l-8.5-8.48L1.53 7.1l6.84 6.84H0v3.3h8.37l-6.84 6.84 2.33 2.33 8.5-8.49 2.34-2.33Z"></path><path fill="#00ACD8" d="m26.96 27.14-8.5-8.49h.01l-2.34-2.34-2.34 2.34-8.5 8.5 2.34 2.33 6.85-6.84V31h3.3v-8.36l6.84 6.84 2.34-2.34Z"></path><path fill="#002F87" d="M16.08 14.77 26.86 3.86s-6.6-6.84-10.78.65C12.16-3 5.3 3.86 5.3 3.86l10.78 10.91Z"></path></svg><style>@media (prefers-color-scheme: light) { :root { filter: none; } }
@media (prefers-color-scheme: dark) { :root { filter: none; } }
</style></svg>